<?xml version="1.0" standalone="no"?>
<!DOCTYPE svg PUBLIC "-//W3C//DTD SVG 20010904//EN"
 "http://www.w3.org/TR/2001/REC-SVG-20010904/DTD/svg10.dtd">
<svg version="1.0" xmlns="http://www.w3.org/2000/svg"
 width="504.000000pt" height="504.000000pt" viewBox="0 0 504.000000 504.000000"
 preserveAspectRatio="xMidYMid meet">
<metadata>
Created by potrace 1.14, written by Peter Selinger 2001-2017
</metadata>
<g transform="translate(0.000000,504.000000) scale(0.100000,-0.100000)"
fill="#000000" stroke="none">
<path d="M2399 5016 c-2 -2 -33 -7 -69 -10 -74 -7 -103 -11 -215 -31 -109 -20
-114 -21 -165 -35 -25 -7 -53 -14 -63 -16 -11 -2 -68 -19 -129 -39 -328 -106
-627 -265 -872 -465 -123 -100 -317 -305 -390 -413 -13 -18 -43 -61 -68 -97
-59 -85 -152 -251 -207 -370 -38 -82 -116 -287 -126 -330 -2 -8 -13 -53 -25
-100 -25 -97 -47 -215 -58 -310 -9 -83 -9 -427 1 -505 50 -412 182 -800 381
-1127 22 -38 43 -68 46 -68 4 0 14 26 24 58 22 71 87 209 112 240 17 21 24 22
60 14 104 -23 271 3 355 56 54 35 89 101 136 257 2 8 27 113 38 165 2 8 4 15
5 15 1 0 3 11 5 25 2 14 6 45 10 70 11 70 11 236 0 262 -5 13 -17 24 -25 24
-24 1 -43 10 -250 112 -107 52 -204 99 -215 103 -168 61 -265 59 -351 -6 -34
-26 -96 -139 -91 -165 8 -39 19 -57 44 -72 37 -21 87 -17 148 12 67 32 121 32
146 1 19 -23 19 -24 -3 -53 -59 -84 -265 -99 -349 -26 -55 49 -71 117 -48 203
47 171 146 255 294 249 94 -3 122 -10 322 -74 128 -42 209 -63 255 -65 l67 -5
98 67 c106 72 238 171 324 243 57 48 255 243 304 300 36 42 175 249 175 261 0
11 116 196 154 244 67 87 176 199 234 243 21 15 40 31 43 36 9 12 75 51 149
87 93 46 146 46 345 -2 50 -11 101 -23 115 -26 14 -2 43 -9 65 -15 22 -5 51
-12 65 -15 14 -2 53 -10 86 -18 34 -8 74 -16 88 -19 14 -3 34 -7 44 -10 9 -3
33 -8 52 -10 19 -3 60 -10 90 -16 30 -6 99 -13 154 -15 127 -6 144 -15 285
-155 42 -41 92 -94 111 -116 39 -46 46 -49 233 -69 32 -4 68 -8 80 -11 12 -2
42 -7 67 -9 71 -8 84 -12 141 -41 110 -55 224 -147 286 -230 l22 -29 -15 55
c-33 117 -90 270 -138 373 -20 41 -36 80 -36 86 0 6 -4 11 -10 11 -5 0 -10 4
-10 9 0 13 -92 175 -102 179 -4 2 -8 8 -8 14 0 13 -75 119 -153 218 -57 71
-222 241 -297 305 -231 197 -559 381 -852 476 -150 49 -325 87 -481 106 -58 6
-433 14 -438 9z"/>
<path d="M4016 3258 c3 -29 6 -79 8 -112 5 -82 25 -104 130 -146 75 -30 86
-38 81 -55 -3 -11 -7 -24 -9 -30 -15 -60 -42 -123 -60 -138 -11 -9 -84 -48
-161 -85 -108 -53 -146 -77 -168 -105 -17 -23 -35 -36 -46 -34 -33 5 -150 100
-150 122 0 11 13 58 28 105 33 97 33 97 -36 174 -64 72 -100 149 -105 228 -1
26 -5 35 -13 27 -5 -5 -10 -49 -10 -97 0 -69 5 -99 24 -144 13 -32 27 -58 32
-58 5 0 9 -5 9 -11 0 -6 7 -17 14 -25 12 -12 13 -22 3 -57 -42 -149 28 -285
172 -336 29 -10 56 -22 61 -27 11 -12 -31 -177 -65 -253 -36 -78 -58 -97 -130
-110 -33 -6 -73 -13 -90 -16 -16 -2 -39 -7 -50 -9 -25 -5 -105 -19 -125 -22
-8 -1 -33 -5 -55 -9 -56 -11 -61 -10 -147 23 -43 17 -78 26 -78 20 0 -12 -61
-138 -66 -138 -8 0 -145 212 -140 217 3 3 15 11 25 17 11 6 48 28 83 50 l63
38 100 -26 c55 -15 107 -28 115 -30 8 -2 35 6 60 16 25 11 52 21 60 23 8 2 49
17 90 33 l75 30 -45 20 c-56 24 -80 32 -116 37 -16 2 -40 7 -54 10 -46 10
-114 7 -175 -8 -33 -8 -99 -15 -147 -16 -121 -3 -187 28 -288 136 l-73 77 28
-51 c45 -88 36 -96 -200 -175 -204 -68 -353 -129 -392 -161 -8 -7 -23 -20 -35
-30 -20 -19 -28 -18 -32 5 -2 7 -8 26 -14 41 -7 16 -12 33 -12 38 0 5 -4 17
-9 27 -5 9 -21 43 -36 75 -31 66 -70 117 -91 117 -11 0 -9 -9 9 -37 21 -34 48
-92 54 -118 11 -45 26 -116 29 -145 5 -42 6 -219 1 -240 -25 -105 -47 -140
-142 -232 -74 -71 -373 -278 -403 -278 -6 0 -12 -4 -14 -8 -1 -5 -50 -34 -108
-64 -92 -48 -120 -58 -225 -77 -140 -25 -154 -27 -218 -37 -41 -6 -52 -12 -73
-44 -14 -21 -33 -60 -44 -87 l-19 -50 24 -44 c47 -86 67 -131 62 -143 -3 -8
-27 -11 -68 -11 -35 1 -68 0 -72 -3 -8 -4 169 -183 219 -222 10 -8 40 -32 65
-53 25 -20 49 -37 52 -37 3 0 5 28 6 63 0 34 0 103 0 152 l1 91 289 -1 c159 0
292 -3 296 -7 4 -3 7 -149 8 -323 l2 -317 65 -24 c91 -34 110 -36 111 -16 0 9
1 263 1 565 l0 547 294 0 c228 0 294 -3 295 -12 1 -7 2 -285 3 -618 l1 -605
88 -3 c65 -2 87 0 88 10 1 7 2 362 3 788 l1 775 295 0 295 0 0 -743 c0 -408 3
-742 6 -742 4 0 25 7 48 15 23 8 42 14 44 14 1 -1 20 4 43 10 l41 11 1 882 c0
486 1 890 1 900 1 15 28 16 296 16 l295 -1 2 -759 3 -759 75 51 c102 70 102
71 101 126 -2 80 -2 263 0 349 0 28 0 82 0 120 -1 39 -1 90 -1 115 0 124 0
206 -1 215 -1 6 -1 33 0 60 0 28 1 59 1 70 0 11 0 56 0 100 0 44 -1 85 -1 90
-1 6 -1 33 0 60 0 28 1 59 1 70 0 11 0 56 0 100 0 44 -1 85 -1 90 -1 6 -1 33
0 60 0 28 1 59 1 70 0 11 0 56 0 100 0 44 -1 86 -1 93 0 6 0 46 1 87 l1 75
127 0 c359 2 456 0 461 -9 3 -5 6 -298 5 -650 0 -353 2 -641 5 -641 10 0 138
242 141 265 0 6 7 19 14 30 16 24 98 247 121 326 15 54 21 78 31 127 2 12 6
32 8 45 3 12 7 31 10 43 2 12 7 45 11 75 4 30 10 81 15 114 9 65 6 427 -4 485
-3 19 -8 58 -11 85 -3 28 -15 95 -27 150 -18 89 -25 104 -57 135 -57 56 -112
89 -208 126 -69 26 -112 32 -288 35 l-120 3 -3 -35 -3 -36 107 -48 c86 -40
117 -60 166 -110 96 -97 182 -238 207 -340 17 -67 22 -95 18 -95 -2 0 -20 26
-40 58 -20 31 -47 68 -60 82 -48 50 -106 100 -117 100 -5 0 -10 4 -10 8 0 10
-19 20 -164 78 -115 47 -291 143 -316 173 -8 9 -29 59 -45 109 -17 50 -33 92
-36 92 -4 0 -5 -24 -3 -52z"/>
</g>
</svg>
